<svg xmlns="http://www.w3.org/2000/svg" xmlns:xlink="http://www.w3.org/1999/xlink" viewBox="0 0 312.5 312.5"><defs><path id="4" d="m250.54 155.4c0 51.37-41.643 93.01-93.01 93.01-51.37 0-93.01-41.643-93.01-93.01 0-51.37 41.643-93.01 93.01-93.01 51.37 0 93.01 41.643 93.01 93.01"/><linearGradient id="2" y1="416.59" x2="0" y2="177.95" gradientUnits="userSpaceOnUse"><stop stop-color="#2dae00"/><stop offset="1" stop-color="#2dae00" stop-opacity="0"/></linearGradient><mask id="0"><path d="M304 156.5A149 149 0 1 1 6 156.5 149 149 0 1 1 304 156.5" transform="matrix(.99664 0 0 .99664 2.02.525)" fill="#fff" fill-rule="evenodd"/></mask><radialGradient id="3" gradientUnits="userSpaceOnUse" cx="126.46" cy="120.71" r="161.17"><stop stop-color="#fff" stop-opacity=".23"/><stop offset="1" stop-color="#fff" stop-opacity="0"/></radialGradient><radialGradient id="1" cx="126.46" cy="120.71" r="100.25" gradientUnits="userSpaceOnUse"><stop stop-color="#002" stop-opacity="0"/><stop offset="1" stop-color="#002" stop-opacity=".39"/></radialGradient></defs><g fill-rule="evenodd"><path d="m-2-2.5v317h317v-317h-317m159.52 64.899c51.37 0 93.03 41.633 93.03 93 0 51.37-41.659 93.03-93.03 93.03-51.37 0-93-41.659-93-93.03 0-51.37 41.633-93 93-93" color="#000" fill="#fff"/><g fill-opacity=".179"><path d="m191.05 242.17c-10.403 4.02-21.714 6.254-33.537 6.254-11.407 0-22.318-2.08-32.417-5.837-26.23.978-44.01 2.899-44.01 5.081 0 3.182 37.804 5.759 84.45 5.759 46.651 0 84.48-2.577 84.48-5.759 0-2.575-24.791-4.761-58.97-5.498"/><path d="m188.63 243.09c-9.725 3.45-20.21 5.342-31.11 5.342-10.242 0-20.07-1.685-29.29-4.743-17.843.847-29.55 2.261-29.55 3.857 0 2.589 30.761 4.69 68.69 4.69 37.928 0 68.66-2.102 68.66-4.69 0-2.082-19.884-3.845-47.4-4.456"/><path d="m185.48 244.13c-8.823 2.776-18.221 4.3-27.961 4.3-8.809 0-17.331-1.23-25.407-3.518-10.931.627-17.876 1.504-17.876 2.502 0 1.895 24.699 3.414 55.19 3.414 30.493 0 55.22-1.519 55.22-3.414 0-1.545-16.556-2.854-39.17-3.283"/></g><use fill="url(#2)" xlink:href="#4"/><use fill="url(#3)" xlink:href="#4"/><use fill="url(#1)" xlink:href="#4"/><g mask="url(#0)" transform="matrix(.62635 0 0 .62635 59.5 57.38)"><g fill="none" stroke="#000"><path d="m592.82 448.41c-6.755-10.521-13.273-15.379-26.14-18.614" transform="matrix(.65057 0 0 .65057-87.31-182.4)" stroke-width="2.306"/><g fill-opacity=".75" stroke-width="1.5"><g><path d="m50 45.37l13.5 13.75"/><path d="m48 92c-30.657 21.956-38.13 66.51-37 66.25"/><path d="m87 95.25c-3.161 23.337 5.251 48.914 22.75 76.25"/><path d="m29.12 206.87c14.427 14.424 33.602 12.21 51.625 12.625"/><path d="m124.63 264.86c-3.122 8.252-2.315 19.684-.53 31.908"/><path d="m103.06 28.42c11.477-11.491 36.09-18.908 68.24-22.274"/><path d="m237.32 50.07c-7.987-14.876-22.06-26.565-36.948-37.825"/><path d="m127.99 54.05c17.643 1.987 49.49 4.601 74.78 18.915"/></g><path d="m222.5 124c-15.12 20.853-33.378 40.31-54.5 58.5"/><path d="m177.5 238.25c19.358 10.801 40.561 15.445 66.25 11.25"/><path d="m268.5 136.5c9.881 18.552 11.331 44.887 12.75 71.25"/><path d="m277.75 96.75c8.139.274 16.03 4.574 23.5 15.5"/></g></g><path d="m40.25 98c20.654 3.619 29.15 2.16 46.25 3.75 10.11-13.262 27.26-30.05 45.25-47.25-7.424-11.585-14.431-23.441-23.25-30.75-22.39 7.591-38.34 16.939-53.5 26.5-9.518 16.574-14.565 32.509-14.75 47.75"/><path d="m198 70.75c6.793 18.669 12.635 35.436 21.25 57.75 17.726 4.681 36.626 10.301 51.25 12.5 4.701-9.437 7.811-27.624 11.25-44-11.68-18.12-28.341-33.746-45.25-49.25-12.436 4.485-25.404 13.229-38.5 23"/><path d="m106.75 167c22.795 3.75 44.787 7.5 66.25 11.25 6.636 20.833 7.494 41.667 9.75 62.5-16.41 13.636-39.04 17.942-59 26.25-23.23-15.01-32.683-31.748-46-48 7.647-17.586 16.08-35.07 29-52"/><path d="m1.061 148.8c.032 1.048 8.05 2.226 10.96 1.061 3.346 21.418 7.729 42.15 19.445 57.983-2.294 11.223-.134 20.22 3.182 28.638-20.318 5.695-18.552 8.774-26.517 12.374"/><path d="m75.66 284.39c19.311 5.113 33.379 15.04 48.26 9.899 4.377 6.2 16.486 10.684 48.08 12.02l-85.91 7.601"/><path d="m299.62 212.62c-5.637-4.154-11.469-8.114-18.75-10.625-14.5 19.317-29 41.31-43.5 48.25-.267 11.909-2.123 22.547-7.375 30.469 10.951.739 22.389.699 35-1.219"/></g><path d="m250.54 155.4c0 51.37-41.643 93.01-93.01 93.01-51.37 0-93.01-41.643-93.01-93.01 0-51.37 41.643-93.01 93.01-93.01 51.37 0 93.01 41.643 93.01 93.01z" fill="none" stroke="#000" stroke-linejoin="round" stroke-linecap="round" stroke-width=".94"/></g></svg>